<svg xmlns="http://www.w3.org/2000/svg" viewBox="0 0 512 512">
  <defs>
    <linearGradient id="bg" x1="0%" y1="0%" x2="100%" y2="100%">
      <stop offset="0%" stop-color="#1e3a5f" /> <!-- Navy Blue (Trains) -->
      <stop offset="100%" stop-color="#8b1538" /> <!-- Dark Red (Flights) -->
    </linearGradient>
  </defs>
  
  <!-- Background Circle -->
  <circle cx="256" cy="256" r="240" fill="url(#bg)" />
  
  <!-- Airplane Path (Top Left) -->
  <path fill="#ffffff" transform="translate(60, 100) scale(0.4) rotate(45 256 256)" d="M510,256 C510,240 500,230 480,230 L340,230 L250,50 L200,50 L260,230 L100,230 L60,180 L20,180 L50,256 L20,332 L60,332 L100,282 L260,282 L200,462 L250,462 L340,282 L480,282 C500,282 510,272 510,256 Z" />
  
  <!-- Train Path (Bottom Right) -->
  <path fill="#ffffff" transform="translate(260, 260) scale(0.35)" d="M384 16H128c-26.5 0-48 21.5-48 48v288c0 26.5 21.5 48 48 48h256c26.5 0 48-21.5 48-48V64c0-26.5-21.5-48-48-48zM160 96h192c8.8 0 16 7.2 16 16v64c0 8.8-7.2 16-16 16H160c-8.8 0-16-7.2-16-16v-64c0-8.8 7.2-16 16-16zm-32 256c-17.7 0-32-14.3-32-32s14.3-32 32-32 32 14.3 32 32-14.3 32-32 32zm256 0c-17.7 0-32-14.3-32-32s14.3-32 32-32 32 14.3 32 32-14.3 32-32 32zM128 416h256c17.7 0 32 14.3 32 32v16c0 26.5-21.5 48-48 48H144c-26.5 0-48-21.5-48-48v-16c0-17.7 14.3-32 32-32z" />
  
  <!-- Dividing Line -->
  <line x1="100" y1="412" x2="412" y2="100" stroke="#ffffff" stroke-width="8" opacity="0.5" />
</svg>
